<?xml version="1.0" standalone="no"?>
<!DOCTYPE svg PUBLIC "-//W3C//DTD SVG 20010904//EN"
 "http://www.w3.org/TR/2001/REC-SVG-20010904/DTD/svg10.dtd">
<svg version="1.0" xmlns="http://www.w3.org/2000/svg"
 width="400.000000pt" height="400.000000pt" viewBox="0 0 400.000000 400.000000"
 preserveAspectRatio="xMidYMid meet">

<g transform="translate(0.000000,400.000000) scale(0.100000,-0.100000)"
fill="#000000" stroke="none">
<path d="M0 2000 l0 -2000 2000 0 2000 0 0 2000 0 2000 -2000 0 -2000 0 0
-2000z m2175 1600 c412 -48 790 -240 1050 -537 38 -43 74 -84 81 -92 10 -11
15 -8 28 17 9 17 16 40 16 52 0 11 5 20 10 20 13 0 13 -16 0 -39 -7 -14 -4
-20 15 -29 21 -10 23 -9 19 6 -5 15 -4 15 5 2 9 -12 4 -22 -23 -47 l-35 -32
21 -26 c17 -21 26 -25 50 -20 26 6 36 1 72 -34 48 -47 103 -69 180 -72 44 -2
60 -7 76 -27 12 -13 19 -30 16 -38 -3 -8 -2 -12 3 -9 5 3 12 -4 16 -15 3 -11
13 -26 20 -34 12 -12 7 -17 -35 -34 -50 -21 -50 -21 -50 -66 0 -26 -4 -46 -10
-46 -5 0 -10 20 -10 45 l0 45 -81 0 c-78 0 -80 -1 -74 -22 5 -20 4 -21 -5 -5
-6 9 -8 22 -5 27 3 6 1 10 -4 10 -6 0 -11 9 -11 20 0 11 -5 20 -11 20 -5 0 -8
4 -5 8 3 5 -6 25 -20 45 -14 20 -22 37 -19 37 3 0 -4 10 -15 22 -11 13 -23 33
-26 45 -4 13 -10 23 -16 23 -5 0 -6 5 -3 10 3 6 2 10 -4 10 -5 0 -30 28 -54
63 -65 91 -227 258 -322 332 -342 267 -765 390 -1183 344 -249 -27 -477 -103
-687 -230 -202 -122 -420 -337 -551 -544 -26 -41 -49 -73 -51 -71 -5 4 67 123
106 176 14 19 56 72 93 117 76 91 90 129 64 169 -17 25 -17 25 2 15 11 -6 23
-24 27 -41 l7 -30 66 59 c144 127 323 233 507 302 50 19 92 37 93 41 2 5 7 6
11 4 4 -3 41 4 82 14 65 16 161 33 254 44 67 7 235 5 320 -4z m90 -95 c339
-59 623 -211 872 -468 205 -212 334 -450 398 -737 26 -114 32 -409 11 -530
-98 -570 -542 -1065 -1108 -1234 -169 -50 -241 -60 -438 -61 -204 0 -303 16
-485 77 -195 66 -459 223 -599 356 -134 129 -267 313 -346 477 -270 567 -142
1231 326 1690 246 242 577 400 930 445 95 12 331 4 439 -15z m1112 -101 c-9
-9 -28 6 -21 18 4 6 10 6 17 -1 6 -6 8 -13 4 -17z m-2422 -105 c4 -11 4 -23 1
-26 -3 -4 -6 1 -6 10 0 10 -4 17 -10 17 -5 0 -10 5 -10 10 0 18 19 10 25 -11z
m2139 -1 c-5 -8 0 -9 15 -5 19 5 21 3 9 -11 -20 -26 -32 -32 -40 -20 -6 11 7
48 18 48 3 0 2 -5 -2 -12z m-2444 -62 c0 -3 -4 -8 -10 -11 -5 -3 -10 -1 -10 4
0 6 5 11 10 11 6 0 10 -2 10 -4z m-50 -286 c0 -5 -4 -10 -10 -10 -5 0 -10 5
-10 10 0 6 5 10 10 10 6 0 10 -4 10 -10z m-280 -50 c0 -5 -4 -10 -10 -10 -5 0
-10 5 -10 10 0 6 5 10 10 10 6 0 10 -4 10 -10z m133 -183 c-4 -17 -2 -19 5 -8
8 11 12 5 17 -25 10 -59 12 -61 24 -31 6 15 13 27 16 27 7 0 -22 -69 -42 -100
-9 -13 -20 -38 -24 -55 -4 -18 -7 22 -8 98 -1 74 3 126 8 123 5 -3 7 -16 4
-29z m-95 -5 c2 -7 -3 -12 -12 -12 -9 0 -16 7 -16 16 0 17 22 14 28 -4z m22
-104 l0 -63 -20 43 c-21 46 -22 58 -2 56 6 -1 12 4 12 12 0 8 2 14 5 14 3 0 5
-28 5 -62z m3414 -149 c-3 -5 -10 -7 -15 -3 -5 3 -7 10 -3 15 3 5 10 7 15 3 5
-3 7 -10 3 -15z m-3479 -189 c3 -5 1 -10 -4 -10 -6 0 -11 5 -11 10 0 6 2 10 4
10 3 0 8 -4 11 -10z m-200 -979 c3 -5 1 -12 -5 -16 -5 -3 -10 1 -10 9 0 18 6
21 15 7z m458 -158 c-13 -2 -33 -2 -45 0 -13 2 -3 4 22 4 25 0 35 -2 23 -4z
m2925 0 c-15 -2 -42 -2 -60 0 -18 2 -6 4 27 4 33 0 48 -2 33 -4z m92 -563 c0
-5 -2 -10 -4 -10 -3 0 -8 5 -11 10 -3 6 -1 10 4 10 6 0 11 -4 11 -10z"/>
<path d="M2294 3424 c9 -8 16 -24 16 -34 0 -10 5 -22 11 -25 7 -5 9 3 6 23 -6
39 -14 52 -33 52 -14 0 -13 -2 0 -16z"/>
<path d="M1830 3420 c-24 -8 -23 -8 8 -9 17 -1 32 4 32 9 0 11 -5 11 -40 0z"/>
<path d="M1517 3379 c7 -7 15 -10 18 -7 3 3 -2 9 -12 12 -14 6 -15 5 -6 -5z"/>
<path d="M2365 3361 c-3 -5 -1 -12 5 -16 5 -3 10 1 10 9 0 18 -6 21 -15 7z"/>
<path d="M2450 3345 c0 -14 5 -25 10 -25 6 0 10 7 10 16 0 8 4 12 10 9 6 -3 7
1 4 9 -10 26 -34 19 -34 -9z"/>
<path d="M2512 3350 c-27 -26 -27 -28 1 -26 12 1 22 7 22 16 0 8 5 18 10 22 7
5 6 8 -1 8 -5 0 -20 -9 -32 -20z"/>
<path d="M1407 3348 c-16 -12 -16 -14 2 -25 16 -10 19 -9 24 13 5 27 -1 30
-26 12z"/>
<path d="M2145 3349 c-4 -6 -5 -12 -2 -15 2 -3 7 2 10 11 7 17 1 20 -8 4z"/>
<path d="M2188 3342 c-9 -9 -13 -24 -10 -32 2 -8 1 -12 -3 -8 -11 10 -47 -11
-40 -23 4 -5 -3 -9 -13 -9 -11 0 -25 -7 -32 -15 -7 -8 -8 -15 -3 -15 34 0 194
-34 259 -54 78 -25 94 -25 94 -2 0 7 13 25 30 41 16 15 27 33 23 38 -3 6 -1 7
4 4 6 -4 17 1 24 10 11 13 11 15 1 9 -7 -4 -20 -2 -29 6 -10 8 -14 8 -10 1 4
-6 3 -14 -3 -18 -6 -4 -8 -10 -5 -15 3 -5 1 -11 -4 -14 -5 -4 -12 -2 -16 4 -4
6 -12 7 -18 3 -7 -4 -6 0 2 10 12 15 11 17 -10 19 -32 2 -41 3 -63 13 -12 5
-21 3 -27 -6 -7 -12 -9 -12 -9 1 -1 12 -3 11 -11 -2 -5 -10 -19 -18 -29 -18
-21 0 -44 32 -32 45 4 5 1 5 -6 1 -7 -4 -10 -12 -7 -17 3 -5 -1 -6 -10 -3 -13
5 -13 9 -3 22 11 13 10 15 -4 9 -12 -4 -15 -2 -12 7 8 22 -12 27 -28 8z m213
-85 c-6 -6 -18 -1 -32 12 l-22 20 31 -11 c19 -7 28 -16 23 -21z"/>
<path d="M2390 3349 c0 -5 5 -7 10 -4 6 3 10 8 10 11 0 2 -4 4 -10 4 -5 0 -10
-5 -10 -11z"/>
<path d="M2560 3356 c0 -2 7 -7 16 -10 8 -3 12 -2 9 4 -6 10 -25 14 -25 6z"/>
<path d="M1465 3327 c-4 -10 -5 -21 -1 -24 10 -10 18 4 13 24 -4 17 -4 17 -12
0z"/>
<path d="M1495 3330 c-3 -5 -1 -10 4 -10 6 0 11 5 11 10 0 6 -2 10 -4 10 -3 0
-8 -4 -11 -10z"/>
<path d="M1765 3310 c-3 -6 -11 -7 -17 -4 -6 4 -8 2 -5 -3 4 -6 0 -16 -8 -23
-13 -11 -20 -9 -40 10 -13 12 -28 19 -34 15 -33 -20 -131 -21 -143 -2 -6 9
-12 8 -21 -4 -6 -9 -19 -14 -27 -11 -8 3 -13 3 -10 1 3 -2 23 -20 45 -39 21
-19 33 -27 26 -18 -13 18 -9 48 7 48 5 0 9 -7 9 -15 0 -8 -4 -12 -9 -9 -10 6
-11 -10 -1 -20 4 -4 8 -13 9 -19 4 -36 18 -58 33 -52 54 21 190 55 260 65 67
10 80 15 70 26 -6 8 -16 14 -21 14 -6 0 -18 10 -28 23 -19 24 -83 36 -95 17z
m-250 -19 c3 -5 2 -12 -3 -15 -5 -3 -9 1 -9 9 0 17 3 19 12 6z"/>
<path d="M2410 3299 c0 -5 9 -9 20 -9 11 0 20 2 20 4 0 2 -9 6 -20 9 -11 3
-20 1 -20 -4z"/>
<path d="M2675 3300 c3 -5 8 -10 11 -10 2 0 4 5 4 10 0 6 -5 10 -11 10 -5 0
-7 -4 -4 -10z"/>
<path d="M1332 3232 c-44 -96 -66 -208 -67 -334 0 -94 -2 -108 -17 -108 -14 0
-15 -5 -7 -32 5 -18 9 -41 9 -52 0 -15 -3 -16 -15 -6 -8 7 -15 9 -15 6 0 -12
22 -51 34 -59 7 -5 3 -14 -14 -28 -23 -20 -23 -22 -7 -34 10 -7 15 -19 11 -29
-4 -10 -1 -16 7 -16 29 0 -17 -29 -66 -42 -63 -15 -61 -13 -41 -42 21 -34 20
-42 -6 -50 l-23 -6 28 -25 c15 -13 27 -27 27 -30 0 -11 -60 -94 -83 -116 -12
-11 -34 -23 -49 -26 -16 -3 -28 -9 -28 -14 0 -11 74 -49 95 -49 12 0 7 -11
-19 -41 -19 -23 -39 -54 -45 -70 l-10 -29 30 16 c17 8 33 13 37 10 5 -6 -87
-96 -99 -96 -11 0 10 112 29 150 l19 40 -32 20 c-29 18 -65 59 -65 75 0 3 9 5
20 5 47 0 99 32 125 76 l26 45 -30 35 c-39 43 -39 54 -2 54 l30 0 -24 43 c-14
23 -25 45 -25 50 0 4 17 5 38 2 25 -4 48 0 71 12 51 26 49 40 -5 56 -51 15
-50 21 7 31 l36 6 -10 39 c-8 29 -7 52 2 88 18 67 25 153 13 153 -36 0 -208
-202 -273 -320 -59 -108 -61 -111 -78 -101 -10 7 -4 26 30 92 60 115 144 224
245 316 71 66 84 83 84 109 0 29 14 113 26 159 4 15 2 14 -9 -4 l-15 -24 -7
23 -7 23 -15 -24 c-11 -20 -13 -21 -8 -3 4 15 1 21 -12 21 -10 0 -24 -4 -31
-10 -7 -5 -15 -7 -19 -3 -3 3 -1 6 5 6 6 0 9 8 6 18 -5 13 -4 14 4 3 6 -8 12
-9 16 -3 13 22 -15 22 -44 1 -25 -19 -28 -25 -17 -38 11 -14 10 -14 -5 -2 -16
12 -25 8 -75 -35 -422 -357 -617 -892 -513 -1406 73 -357 313 -700 643 -921
160 -107 384 -202 567 -242 102 -22 355 -31 461 -16 342 49 665 215 911 470
208 214 321 413 389 681 27 108 38 405 19 514 -15 92 -49 229 -59 238 -4 5
-25 -11 -48 -35 -40 -41 -41 -43 -34 -94 4 -29 6 -53 4 -53 -1 0 -22 14 -47
31 l-45 32 -41 -33 c-22 -18 -43 -30 -45 -28 -3 3 -1 27 4 54 9 48 9 50 -27
86 -19 21 -34 39 -31 42 2 2 26 7 54 12 50 9 50 9 65 62 8 28 18 52 22 52 4 0
17 -22 28 -49 22 -51 41 -61 111 -61 l28 0 -26 62 c-40 99 -91 196 -152 288
-67 101 -236 280 -335 354 -88 65 -107 77 -83 49 20 -23 23 -40 3 -24 -10 9
-16 8 -25 -3 -7 -8 -23 -13 -37 -10 -15 3 -24 0 -24 -8 0 -7 -9 5 -20 27 -11
22 -18 32 -15 22 20 -74 35 -140 41 -185 6 -48 12 -59 58 -100 127 -117 210
-222 277 -354 30 -59 35 -77 24 -82 -9 -3 -27 19 -54 69 -22 40 -67 108 -100
151 -60 80 -187 212 -195 203 -10 -10 -8 -96 4 -124 7 -18 10 -55 7 -93 l-5
-62 39 -6 c46 -8 50 -19 12 -27 -16 -4 -35 -11 -43 -16 -13 -9 -12 -14 8 -33
17 -18 34 -23 72 -23 28 0 50 -4 50 -10 0 -5 -9 -25 -20 -43 -26 -42 -26 -42
11 -42 l31 0 -17 -27 c-9 -16 -26 -36 -37 -45 -19 -17 -19 -18 12 -64 32 -45
78 -74 120 -74 11 0 20 -5 20 -11 0 -14 -60 -74 -80 -81 -12 -4 -12 -9 2 -39
18 -38 37 -112 38 -145 0 -19 -8 -14 -56 29 -54 50 -59 76 -9 43 14 -9 25 -14
25 -11 0 11 -33 70 -56 101 l-23 31 38 12 c21 6 46 20 56 31 18 19 17 20 -1
20 -34 0 -82 37 -118 92 l-36 52 25 26 c30 32 31 40 5 40 -25 0 -25 5 1 46
l21 34 -29 0 c-15 0 -44 8 -63 18 -28 14 -34 22 -32 42 2 14 9 31 15 38 7 10
5 17 -12 28 l-21 15 20 26 c24 31 26 45 4 36 -14 -5 -16 -2 -10 22 19 75 20
89 4 82 -13 -5 -16 14 -21 126 -5 142 -27 238 -73 328 l-25 50 -46 -33 c-57
-42 -115 -106 -153 -174 -17 -28 -42 -60 -57 -69 -25 -17 -26 -17 -20 4 4 18
2 19 -14 11 -10 -6 -32 -29 -48 -53 -38 -53 -67 -87 -75 -87 -3 0 -6 12 -6 28
-1 25 -29 89 -30 67 0 -5 -5 -17 -10 -25 -8 -12 -14 -10 -40 15 -16 16 -30 23
-30 17 0 -7 -8 -12 -18 -12 -10 0 -23 -5 -28 -10 -18 -18 -75 -20 -105 -4 -16
8 -32 15 -36 15 -5 0 -13 5 -19 10 -8 7 -19 1 -33 -18 -20 -26 -22 -27 -35
-10 -20 25 -24 22 -39 -30 l-14 -46 -29 38 c-16 21 -45 56 -64 78 -32 37 -35
38 -40 18 l-5 -21 -23 22 c-12 13 -44 57 -72 99 -42 65 -109 131 -166 162 -7
4 -23 -20 -42 -61z m120 -82 c29 -38 65 -87 79 -108 15 -21 53 -59 85 -83 70
-53 104 -101 104 -143 l-1 -31 -14 33 c-8 17 -17 32 -20 32 -3 0 -3 -4 0 -10
15 -24 -12 -6 -64 42 -134 123 -161 152 -172 187 -6 20 -24 57 -40 84 -16 26
-29 52 -29 57 0 24 23 5 72 -60z m1188 -71 c7 -46 11 -116 9 -154 l-4 -70 27
30 c37 40 35 21 -7 -81 -19 -46 -35 -87 -35 -91 0 -4 14 8 30 27 l30 35 -6
-30 c-4 -16 -10 -37 -15 -45 -7 -13 -8 -13 -9 0 0 13 -1 13 -10 0 -18 -27 -30
9 -30 88 0 39 -4 72 -9 72 -4 0 -5 19 0 43 4 23 8 85 8 137 0 81 -2 92 -13 78
-21 -28 -28 -21 -11 12 8 16 15 37 14 47 -1 17 -48 -72 -49 -92 -1 -17 -70
-106 -79 -101 -4 3 -41 -28 -81 -69 -40 -41 -77 -72 -82 -69 -4 3 -17 -10 -28
-28 -15 -26 -20 -29 -20 -13 1 46 37 99 105 154 38 32 92 89 121 129 28 40 64
86 80 103 l28 29 12 -28 c6 -15 17 -66 24 -113z m-1245 65 c18 -45 19 -49 2
-35 -8 6 -17 8 -20 4 -10 -10 -8 -120 3 -188 7 -43 6 -61 -2 -66 -8 -5 -9 -30
-4 -80 8 -88 0 -83 -43 24 -37 93 -38 107 -8 79 l22 -21 0 92 c1 81 20 227 31
227 2 0 11 -16 19 -36z m-205 -20 c0 -2 -9 0 -20 6 -11 6 -20 13 -20 16 0 2 9
0 20 -6 11 -6 20 -13 20 -16z m-155 -84 c3 -5 -1 -10 -10 -10 -9 0 -13 5 -10
10 3 6 8 10 10 10 2 0 7 -4 10 -10z m135 -4 c0 -7 -36 -46 -80 -85 -68 -62
-175 -185 -257 -296 -15 -20 -22 -25 -23 -14 0 31 126 195 233 301 107 106
127 121 127 94z m1735 -48 c114 -105 230 -241 271 -319 29 -57 -4 -28 -72 64
-38 50 -117 140 -176 198 -60 59 -108 109 -108 113 0 16 22 1 85 -56z m75 52
c0 -5 -4 -10 -10 -10 -5 0 -10 5 -10 10 0 6 5 10 10 10 6 0 10 -4 10 -10z
m-2022 -88 c3 -16 -2 -22 -17 -22 -26 0 -36 17 -20 36 16 19 33 13 37 -14z
m2122 -3 c0 -12 -7 -19 -19 -19 -26 0 -36 17 -21 35 15 18 40 8 40 -16z m-996
-61 c4 6 12 12 17 12 6 0 7 -4 4 -10 -4 -6 5 -10 20 -10 l26 0 -27 -46 -26
-45 26 5 c83 18 75 22 105 -46 22 -47 27 -68 20 -86 -12 -32 -12 -34 9 -23 10
5 59 7 114 4 106 -6 116 -15 62 -58 l-29 -23 60 -6 c97 -11 143 -25 222 -66
41 -22 87 -40 101 -40 24 -1 25 -2 8 -11 -26 -16 -90 -5 -149 25 -27 15 -51
25 -53 23 -7 -7 31 -37 72 -57 l39 -19 -40 -1 c-45 0 -38 -12 19 -30 43 -14
100 -66 133 -123 12 -20 20 -37 18 -37 -3 0 -36 26 -74 58 -38 32 -79 58 -92
59 -23 2 -22 0 9 -25 35 -29 42 -45 15 -35 -11 4 -14 3 -9 -5 5 -9 0 -9 -21
-2 l-28 10 29 -23 c62 -48 166 -140 166 -148 0 -5 -39 16 -86 47 -47 30 -88
54 -90 52 -2 -2 3 -16 10 -30 l14 -26 -42 20 c-22 10 -49 22 -58 25 -21 6 -23
24 -6 41 9 9 9 12 0 12 -7 0 -21 -9 -32 -20 -11 -11 -29 -20 -39 -20 -37 0
-31 -19 11 -38 24 -11 56 -34 73 -51 l30 -32 -43 7 c-23 4 -42 4 -42 1 0 -3
20 -15 45 -27 31 -15 53 -36 74 -71 17 -27 28 -49 26 -49 -3 0 -22 7 -42 15
-19 8 -38 15 -40 15 -3 0 -3 -7 1 -15 3 -8 1 -15 -4 -15 -11 0 -7 -50 5 -71 4
-8 -8 1 -26 19 -37 34 -63 44 -37 15 32 -38 28 -40 -35 -23 -35 9 -69 20 -76
24 -7 5 -1 -11 14 -34 28 -44 24 -60 -15 -60 -11 0 -11 3 -3 8 6 4 -6 8 -28 8
-36 1 -38 0 -26 -15 46 -54 -3 -55 -60 0 -20 18 -41 33 -46 31 -5 -1 -6 2 -3
7 4 5 -2 18 -13 28 -10 10 -26 35 -34 56 -16 37 -16 37 4 26 12 -6 39 -27 61
-47 38 -34 40 -35 33 -12 -4 14 -16 43 -26 64 -23 49 -23 49 1 36 11 -6 20 -7
20 -2 0 5 18 12 40 15 36 5 116 44 107 53 -3 3 -38 -5 -82 -21 -11 -4 -6 2 10
13 17 12 41 30 55 42 23 20 23 20 2 10 -40 -20 -145 -24 -167 -6 -20 15 -20
15 3 16 32 0 76 25 101 56 12 15 21 23 21 19 0 -5 8 -1 18 7 9 9 56 35 103 60
l87 44 -34 36 c-22 25 -51 42 -89 54 l-56 18 58 21 c62 23 56 35 -18 35 -27 0
-38 4 -33 11 4 8 -3 9 -22 5 -16 -4 -54 -10 -85 -15 -32 -6 -80 -22 -109 -36
l-52 -27 33 47 c18 25 39 51 46 57 7 6 13 14 13 19 0 12 -67 -29 -100 -62 -32
-33 -40 -35 -40 -14 0 21 -72 -51 -94 -93 l-17 -34 -28 44 c-16 23 -43 57 -61
73 l-33 30 7 -28 c6 -27 6 -27 -28 10 -19 21 -53 49 -76 62 -39 22 -41 22 -31
4 5 -11 26 -39 46 -62 19 -24 35 -44 35 -45 0 -2 -25 10 -56 25 -31 15 -79 30
-107 33 -27 4 -64 9 -81 12 -24 4 -28 3 -16 -5 11 -8 3 -11 -35 -11 -77 0 -87
-14 -24 -35 l54 -18 -40 -18 c-22 -10 -45 -18 -52 -18 -6 -1 -25 -18 -42 -40
-36 -45 -37 -43 59 -86 36 -16 73 -36 83 -44 14 -12 17 -12 17 0 0 8 8 3 16
-11 23 -36 83 -80 111 -80 41 0 25 -18 -26 -29 -40 -8 -57 -8 -86 5 -40 17
-60 12 -26 -6 27 -14 27 -28 -1 -32 -20 -3 -17 -7 19 -26 23 -12 53 -22 65
-22 33 0 69 -11 64 -19 -3 -4 -14 -31 -26 -61 l-21 -54 23 19 c13 11 25 22 28
25 12 14 70 51 70 45 0 -12 -22 -50 -42 -72 -11 -12 -17 -26 -13 -33 4 -6 1
-9 -7 -8 -7 2 -12 -5 -12 -15 1 -10 -1 -16 -4 -13 -3 4 -18 -5 -32 -19 -15
-15 -42 -28 -60 -30 l-33 -4 22 22 c11 13 21 26 21 29 0 11 -69 2 -86 -12 -10
-8 -15 -10 -11 -3 4 6 2 13 -5 15 -8 3 -1 19 20 46 l33 41 -57 -19 c-31 -11
-66 -20 -77 -20 -19 0 -19 1 -2 28 l18 27 -24 -21 c-46 -40 -53 -38 -26 10 14
25 20 43 14 39 -17 -10 -37 -13 -37 -4 0 4 6 13 13 20 10 11 8 11 -12 1 -29
-15 -81 -30 -81 -24 0 3 6 17 14 32 18 35 51 64 101 91 l40 22 -42 -5 c-24 -2
-43 0 -43 4 0 13 60 60 99 77 l36 15 -32 14 c-18 8 -33 18 -33 23 0 5 -7 12
-16 15 -13 5 -15 1 -12 -18 4 -22 0 -27 -36 -40 -23 -7 -49 -17 -60 -21 -16
-7 -17 -6 -7 13 16 30 14 34 -11 21 -13 -7 -24 -12 -25 -11 -9 6 -23 0 -19 -7
6 -9 -82 -71 -99 -71 -5 0 2 11 15 25 12 13 27 22 33 18 6 -3 7 -2 4 4 -3 5
20 32 53 59 47 38 56 50 44 57 -8 5 -21 6 -29 3 -24 -9 -6 19 24 37 15 9 28
23 28 31 0 8 -5 12 -11 9 -27 -16 -85 -60 -124 -96 -24 -21 -46 -36 -49 -34
-6 7 47 85 79 114 13 12 46 32 73 45 l50 23 -40 5 -40 5 32 13 c17 8 42 25 55
39 22 25 21 25 -36 -6 -59 -31 -117 -40 -146 -21 -12 8 -10 10 11 10 14 0 66
20 116 45 72 36 109 48 174 56 46 5 85 12 88 14 2 3 -8 14 -22 26 -47 36 -35
45 63 52 75 6 95 4 116 -10 l26 -16 -16 38 c-10 22 -13 42 -7 49 4 6 16 32 26
59 19 50 19 50 83 38 23 -5 42 -5 42 -2 0 4 -12 24 -26 45 l-27 39 32 -5 c25
-4 31 -1 26 10 -4 10 0 12 12 8 9 -4 20 -1 24 5 4 8 16 5 37 -11 l30 -23 34
26 33 27 5 -23 c4 -15 8 -18 14 -9z m-1249 -78 c3 -5 1 -10 -4 -10 -6 0 -11 5
-11 10 0 6 2 10 4 10 3 0 8 -4 11 -10z m682 -6 c35 -17 71 -59 60 -71 -10 -10
-77 7 -77 20 0 7 -14 24 -32 39 -32 26 -32 27 -10 28 13 0 40 -7 59 -16z
m1016 -5 c-18 -12 -33 -25 -33 -29 0 -18 -33 -40 -61 -40 -36 0 -37 9 -1 43
31 30 66 46 102 46 24 1 24 0 -7 -20z m637 11 c0 -5 -4 -10 -10 -10 -5 0 -10
5 -10 10 0 6 5 10 10 10 6 0 10 -4 10 -10z m-1839 -62 c11 -13 24 -32 31 -43
l11 -20 -23 20 -23 20 7 -30 c5 -20 4 -27 -3 -20 -11 11 -32 95 -24 95 3 0 13
-10 24 -22z m1202 -5 c-7 -2 -19 -2 -25 0 -7 3 -2 5 12 5 14 0 19 -2 13 -5z
m-1803 -109 c0 -8 -7 -14 -15 -14 -15 0 -21 21 -9 33 10 9 24 -2 24 -19z
m2566 15 c10 -17 -13 -36 -27 -22 -12 12 -4 33 11 33 5 0 12 -5 16 -11z
m-2543 -143 l17 -54 50 -7 c28 -4 50 -10 50 -15 0 -4 -15 -23 -34 -41 -33 -32
-34 -36 -26 -79 4 -25 6 -48 4 -52 -3 -5 -23 6 -44 23 l-38 31 -48 -33 -47
-32 6 55 c7 53 6 55 -33 93 -46 45 -49 55 -16 55 66 0 86 11 108 61 11 27 24
49 27 49 4 0 15 -24 24 -54z m1000 -115 c48 -11 84 -43 108 -96 20 -43 27
-103 9 -75 -8 12 -10 10 -11 -10 -1 -14 -2 -34 -1 -45 1 -11 -10 2 -23 29 -43
87 -100 130 -187 141 -103 14 -111 22 -45 47 48 19 95 21 150 9z m635 -7 c76
-26 70 -34 -37 -49 -88 -12 -168 -72 -192 -142 l-11 -35 -15 29 c-32 60 -9
134 55 181 49 35 125 41 200 16z m-1365 -50 c9 -9 -4 -35 -14 -28 -5 3 -9 12
-9 20 0 14 12 19 23 8z m1970 -20 c-4 -10 -9 -12 -15 -6 -12 12 -1 35 12 27 5
-3 6 -13 3 -21z m-1265 -64 c2 0 2 -8 0 -17 -2 -12 4 -19 20 -21 25 -4 28 -12
10 -30 -33 -33 -98 5 -98 57 0 29 1 29 32 20 18 -5 34 -9 36 -9z m608 -24 c-9
-37 -51 -62 -83 -50 -35 12 -42 34 -10 34 30 0 40 10 26 27 -6 7 -8 13 -3 14
23 2 46 8 52 13 12 13 24 -13 18 -38z m-1723 -22 c9 -10 -4 -34 -19 -34 -8 0
-14 9 -14 20 0 19 19 27 33 14z m2797 -14 c0 -13 -7 -20 -20 -20 -20 0 -23 19
-5 32 17 13 25 9 25 -12z m-1372 -43 c6 3 12 -3 12 -12 0 -9 4 -14 9 -11 5 3
14 -9 21 -27 27 -67 72 -153 92 -174 12 -12 17 -27 13 -34 -6 -8 -4 -10 5 -4
10 6 12 4 7 -9 -4 -10 -3 -15 3 -11 16 10 32 -76 28 -147 l-4 -68 24 28 23 27
-6 -40 c-3 -22 -8 -57 -10 -78 -9 -81 -49 -113 -129 -104 -30 3 -69 13 -87 23
l-34 17 34 12 c71 24 122 120 101 193 -14 52 -20 58 -65 71 -86 24 -190 4
-212 -40 -17 -33 -16 -104 1 -138 18 -34 81 -91 101 -91 35 0 11 -21 -41 -36
-107 -31 -178 -1 -179 75 0 21 -3 37 -7 34 -5 -2 -8 11 -8 31 0 19 -3 43 -6
53 -4 14 0 12 18 -7 l23 -25 0 75 c0 76 21 162 34 141 5 -7 13 5 20 28 6 22
16 43 20 46 5 3 27 42 49 88 55 113 65 125 88 107 11 -8 16 -10 12 -6 -4 5 -2
16 4 23 10 13 13 13 22 1 6 -8 17 -13 24 -11z m-1095 -34 c-13 -2 -33 -2 -45
0 -13 2 -3 4 22 4 25 0 35 -2 23 -4z m2160 0 c-13 -2 -33 -2 -45 0 -13 2 -3 4
22 4 25 0 35 -2 23 -4z m284 -47 c-4 -9 -11 -16 -17 -16 -17 0 -24 31 -9 41
18 11 34 -5 26 -25z m-2749 7 c-2 -10 -10 -18 -18 -18 -8 0 -16 8 -18 18 -2
12 3 17 18 17 15 0 20 -5 18 -17z m2172 -49 c0 -8 -19 -13 -24 -6 -3 5 1 9 9
9 8 0 15 -2 15 -3z m-559 -41 c13 -16 12 -17 -3 -4 -10 7 -18 15 -18 17 0 8 8
3 21 -13z m-1336 -13 c-3 -5 -13 -10 -21 -10 -8 0 -14 5 -14 10 0 6 9 10 21
10 11 0 17 -4 14 -10z m2215 0 c0 -5 -6 -10 -14 -10 -8 0 -18 5 -21 10 -3 6 3
10 14 10 12 0 21 -4 21 -10z m-1900 -24 c-5 -13 -12 -51 -16 -85 -3 -33 -13
-66 -20 -72 -10 -8 -14 -8 -14 0 0 6 4 11 10 11 5 0 7 6 4 13 -3 8 0 26 6 42
12 33 7 43 -15 25 -29 -24 -8 28 28 68 26 28 29 28 17 -2z m1550 -1 c0 15 40
-48 40 -64 0 -11 -5 -9 -22 5 -21 19 -21 19 -14 -1 15 -39 19 -78 9 -72 -6 4
-13 27 -16 52 -4 25 -9 57 -13 72 -4 22 -3 25 5 13 6 -8 11 -10 11 -5z m-1675
-77 c-6 -24 -10 -49 -7 -57 3 -8 0 -11 -7 -7 -6 4 -11 14 -11 23 0 11 -6 14
-25 9 -38 -10 -30 10 17 44 22 16 42 30 44 30 1 0 -4 -19 -11 -42z m1850 -18
l20 -23 -23 8 c-17 5 -27 2 -36 -11 -12 -15 -14 -13 -19 17 -3 19 -9 43 -13
53 -7 19 -6 19 22 -1 16 -11 38 -31 49 -43z m-1505 10 c-8 -5 -19 -10 -25 -10
-5 0 -3 5 5 10 8 5 20 10 25 10 6 0 3 -5 -5 -10z m1980 -20 c0 -5 -5 -10 -11
-10 -5 0 -7 5 -4 10 3 6 8 10 11 10 2 0 4 -4 4 -10z m-1361 -63 c14 -6 26 -18
29 -25 4 -12 0 -12 -19 -1 -36 19 -132 16 -164 -5 -26 -17 -27 -17 -23 0 2 10
14 24 28 31 32 16 118 16 149 0z m-940 -108 c-23 -14 -33 19 -18 65 l13 41 9
-49 c8 -38 7 -50 -4 -57z m-152 23 c23 -63 17 -80 -7 -22 -9 22 -17 29 -34 26
-11 -3 -22 -5 -22 -5 -1 -1 2 -17 6 -36 12 -52 -4 -42 -31 20 -19 43 -29 55
-46 55 -29 0 -29 -16 2 -86 27 -61 30 -74 16 -74 -5 0 -27 35 -49 78 -31 60
-43 76 -58 74 -28 -5 -28 -5 -14 -76 7 -36 10 -71 7 -78 -5 -16 -35 80 -44
139 l-6 42 54 4 c30 2 88 3 129 3 l75 -1 22 -63z m1913 6 c0 -40 -10 -48 -30
-23 -9 11 -9 22 1 49 15 42 29 30 29 -26z m402 44 c4 -4 -2 -43 -12 -86 -11
-43 -20 -81 -20 -84 0 -3 -5 -1 -11 5 -7 7 -7 23 -1 49 24 93 24 91 -4 97 -22
4 -28 -2 -53 -57 -32 -68 -56 -104 -65 -95 -4 3 3 28 15 54 12 26 25 61 29 76
8 27 7 29 -20 29 -23 0 -30 -5 -34 -28 -4 -15 -15 -41 -26 -57 l-20 -30 7 38
c5 35 4 37 -21 37 -21 0 -29 -7 -38 -31 -6 -16 -12 -28 -15 -25 -3 2 6 32 18
67 l23 62 120 -7 c67 -4 124 -10 128 -14z m-1258 -22 c-7 -7 -24 -7 -50 -1
l-39 9 50 1 c33 1 46 -2 39 -9z m786 -111 c0 -9 -10 -19 -21 -22 -19 -5 -21
-3 -15 25 3 17 6 40 7 52 0 18 3 16 14 -9 8 -16 14 -37 15 -46z m-1607 4 c6
-29 4 -31 -14 -25 -23 9 -23 10 -14 54 8 35 18 25 28 -29z m77 -37 c0 -33 29
-126 40 -126 5 0 15 9 22 19 13 18 16 15 42 -43 15 -35 41 -76 58 -92 27 -26
31 -27 41 -13 9 14 18 2 54 -72 24 -49 48 -89 53 -89 6 0 10 -8 10 -17 0 -29
-68 45 -96 104 -20 42 -29 53 -49 53 -28 0 -79 58 -96 107 -9 29 -13 32 -31
22 -18 -9 -24 -8 -35 7 -22 30 -45 123 -39 150 8 29 26 22 26 -10z m1439 -41
c-7 -36 -31 -98 -44 -113 -2 -2 -13 1 -24 8 -19 10 -23 7 -37 -26 -25 -59 -62
-102 -91 -106 -21 -2 -33 -15 -54 -57 -35 -67 -79 -115 -93 -101 -7 7 -4 15 9
24 11 7 36 47 55 87 42 91 39 86 50 70 7 -12 12 -12 32 1 26 17 88 125 88 154
0 15 3 15 25 -6 l24 -23 11 29 c7 16 16 53 22 83 10 45 13 51 23 37 9 -11 10
-30 4 -61z m-1679 30 c46 -24 70 -62 70 -112 0 -38 -5 -50 -34 -79 -27 -27
-42 -34 -73 -34 -50 0 -83 23 -83 58 l0 26 16 -22 c11 -16 25 -22 54 -22 46 0
70 26 70 76 0 37 -47 84 -84 84 -31 0 -72 -34 -80 -65 -9 -37 -26 -30 -26 11
0 52 44 94 100 94 22 0 54 -7 70 -15z m2028 -10 c34 -29 46 -63 33 -97 -8 -22
-9 -22 -24 13 -30 71 -89 88 -138 40 -52 -53 -28 -131 41 -131 17 0 39 9 50
20 l20 20 0 -24 c0 -33 -35 -56 -83 -56 -55 0 -107 52 -107 107 0 50 18 82 59
110 47 32 110 31 149 -2z m112 -40 c0 -19 -20 -29 -32 -17 -15 15 -2 43 17 36
8 -3 15 -12 15 -19z m-2350 1 c0 -20 -19 -31 -32 -18 -6 6 -7 15 -4 21 10 16
36 13 36 -3z m178 -64 c4 -28 -24 -40 -45 -19 -14 13 -14 19 -3 32 18 22 44
15 48 -13z m2008 13 c7 -18 -13 -45 -33 -45 -17 0 -27 24 -19 45 7 20 45 19
52 0z m-2186 -20 c0 -16 -35 -21 -45 -6 -4 8 9 15 38 20 4 0 7 -6 7 -14z
m1115 5 c-4 -6 10 -10 34 -10 21 0 41 5 43 10 2 7 17 6 43 -3 l39 -14 -33 -6
c-43 -9 -139 -7 -171 3 -26 7 -26 7 48 29 2 1 0 -3 -3 -9z m1225 -11 c0 -5 -4
-9 -10 -9 -5 0 -10 7 -10 16 0 8 5 12 10 9 6 -3 10 -10 10 -16z m-1879 -56
c18 -27 57 -74 88 -106 53 -56 54 -57 36 -77 -17 -19 -20 -19 -36 -4 -10 9
-15 23 -12 32 3 12 2 13 -4 5 -10 -15 -69 42 -122 116 -29 42 -30 45 -15 63
10 10 21 18 25 18 4 0 23 -21 40 -47z m1469 10 c0 -23 -162 -213 -182 -213 -4
0 -12 9 -18 21 -10 18 -6 27 32 67 24 26 63 73 87 104 38 51 45 56 62 45 10
-6 19 -17 19 -24z m-1910 -12 c15 -30 12 -39 -18 -55 -28 -15 -29 -14 -45 19
-16 33 -16 34 11 44 38 14 40 13 52 -8z m2347 -5 c3 -2 -3 -18 -12 -35 -15
-31 -16 -31 -43 -14 -15 9 -28 18 -30 19 -1 1 2 13 9 27 10 22 15 24 41 16 17
-4 33 -10 35 -13z m-2036 -38 c17 -33 18 -40 5 -29 -13 11 -19 11 -31 1 -12
-10 -18 -10 -30 0 -12 10 -11 16 7 41 12 16 23 29 25 29 1 0 12 -19 24 -42z
m1697 18 c6 -14 23 -32 37 -42 l25 -16 -30 -31 c-35 -36 -48 -31 -26 12 20 38
20 47 1 31 -12 -10 -18 -10 -32 1 -13 11 -17 11 -20 2 -3 -7 -8 -13 -13 -13
-5 0 1 18 13 40 12 22 25 40 28 40 3 0 11 -11 17 -24z m-1921 -75 c18 -8 23
-15 16 -22 -26 -26 -73 12 -58 47 7 16 9 17 12 3 2 -9 16 -22 30 -28z m2138
29 c3 -6 -1 -7 -9 -4 -18 7 -21 14 -7 14 6 0 13 -4 16 -10z m-1976 -14 c7 -8
14 -24 16 -36 4 -20 2 -19 -29 7 -20 17 -28 31 -22 35 16 11 22 10 35 -6z
m1981 -15 c0 -30 -59 -40 -68 -11 -4 12 -3 13 10 2 13 -10 18 -9 28 3 14 17
30 20 30 6z m-1880 -30 c0 -5 -17 -21 -37 -36 l-38 -28 34 36 c37 39 41 42 41
28z m1584 0 c3 -5 -1 -11 -9 -14 -9 -4 -12 -1 -8 9 6 16 10 17 17 5z m-1489
-159 c11 -2 38 -8 59 -14 l40 -10 -46 -41 -45 -42 7 -55 c4 -30 6 -56 5 -58
-2 -2 -18 10 -36 25 -69 58 -64 57 -114 28 -25 -15 -48 -25 -51 -23 -2 3 5 31
17 62 l22 57 -43 45 -44 44 62 0 62 0 26 53 27 52 16 -60 c12 -45 21 -61 36
-63z m1552 20 c35 2 63 1 63 -2 0 -3 -20 -25 -44 -49 l-45 -44 20 -49 c10 -27
19 -53 19 -59 0 -5 -23 2 -51 16 l-50 26 -48 -41 c-27 -22 -51 -40 -53 -40 -3
0 -1 26 4 58 l9 57 -46 41 c-26 23 -43 44 -38 47 4 2 32 8 60 12 52 7 53 8 63
48 23 87 21 86 49 29 l26 -53 62 3z m-1253 -43 c-8 -14 -34 -11 -34 5 0 7 -12
22 -27 31 l-28 18 24 -27 c23 -24 23 -26 5 -26 -10 0 -37 16 -59 34 -39 33
-40 34 -21 54 18 21 18 21 82 -30 35 -27 62 -54 58 -59z m913 40 c-17 -15 -37
-24 -44 -22 -8 3 -13 -2 -13 -13 0 -14 -3 -15 -12 -6 -7 7 -17 8 -29 2 -11 -6
-20 -7 -24 -1 -3 6 23 33 57 60 l63 51 17 -22 c16 -22 16 -24 -15 -49z m-581
-9 c6 0 15 -7 18 -16 11 -28 6 -36 -10 -20 -8 9 -21 16 -28 16 -18 0 -64 37
-76 61 -9 15 -1 13 37 -11 26 -16 52 -30 59 -30z m210 26 c-13 -21 -116 -82
-116 -69 0 14 23 43 34 43 7 0 31 13 52 29 45 33 53 32 30 -3z m-652 -125 c-2
-3 -12 3 -22 13 -16 17 -16 18 5 5 12 -7 20 -15 17 -18z m284 3 c39 -16 41
-23 6 -16 -20 4 -25 2 -19 -8 5 -9 4 -11 -4 -6 -6 4 -9 12 -6 17 4 5 -1 9 -10
9 -11 0 -15 -5 -11 -16 5 -12 1 -14 -17 -8 -30 9 -30 9 -22 34 7 22 16 22 83
-6z m522 2 c0 -18 -8 -27 -31 -35 -44 -15 -46 -14 -19 9 17 15 19 20 7 20 -24
0 -47 -11 -42 -20 3 -5 -4 -6 -15 -3 -26 7 -23 10 36 33 63 25 64 24 64 -4z
m230 20 c0 -2 -8 -10 -17 -17 -16 -13 -17 -12 -4 4 13 16 21 21 21 13z m-942
-103 c-10 -2 -28 -2 -40 0 -13 2 -5 4 17 4 22 1 32 -1 23 -4z m312 -23 c0 -21
-5 -30 -16 -30 -11 0 -14 5 -10 16 3 9 6 22 6 30 0 8 5 14 10 14 6 0 10 -13
10 -30z m553 23 c-7 -2 -19 -2 -25 0 -7 3 -2 5 12 5 14 0 19 -2 13 -5z m-333
-28 c0 -16 -6 -25 -15 -25 -9 0 -15 9 -15 25 0 16 6 25 15 25 9 0 15 -9 15
-25z m-623 -19 c24 -1 39 -21 23 -31 -6 -4 -10 -1 -10 4 0 6 -8 11 -18 11 -10
0 -27 7 -38 16 -19 15 -19 16 1 8 11 -4 30 -8 42 -8z m234 -37 c-10 -23 -10
-23 -10 7 -1 17 2 34 7 38 11 12 14 -18 3 -45z m549 4 c0 -13 -4 -23 -9 -23
-10 0 -21 57 -12 65 8 8 21 -18 21 -42z m280 42 c0 -4 -79 -45 -87 -45 -2 0
-3 7 -3 16 0 9 6 14 13 11 7 -3 24 1 38 9 25 14 39 17 39 9z m-659 -58 c-1 -4
-1 -18 -1 -32 0 -14 -4 -25 -9 -25 -10 0 -22 51 -14 63 6 9 25 5 24 -6z m219
-12 c0 -16 -6 -25 -15 -25 -28 0 -18 40 13 49 1 1 2 -10 2 -24z m-70 -27 c-1
-34 -3 -39 -11 -25 -12 21 -52 22 -72 2 -13 -12 -16 -12 -21 8 -14 52 -10 57
49 57 l55 0 0 -42z m-220 -20 c0 -6 -10 -8 -22 -4 -13 3 -29 6 -36 6 -7 0 -11
4 -8 8 7 12 66 2 66 -10z m403 1 c4 -16 3 -18 -8 -9 -7 6 -25 8 -39 4 -16 -4
-26 -2 -26 4 0 6 12 13 28 15 15 2 30 5 33 6 4 0 9 -8 12 -20z"/>
<path d="M1986 2635 c4 -8 10 -15 15 -15 5 0 9 7 9 15 0 8 -7 15 -15 15 -9 0
-12 -6 -9 -15z"/>
<path d="M1922 2536 c2 -22 9 -41 16 -44 17 -5 15 40 -3 64 -14 18 -15 17 -13
-20z"/>
<path d="M2052 2546 c-15 -34 -15 -59 0 -54 22 8 32 35 22 58 -10 22 -10 22
-22 -4z"/>
<path d="M1245 2170 c-3 -6 1 -7 9 -4 18 7 21 14 7 14 -6 0 -13 -4 -16 -10z"/>
<path d="M2550 1960 c0 -13 18 -22 24 -11 3 5 -1 11 -9 15 -8 3 -15 1 -15 -4z"/>
<path d="M1941 2014 c0 -11 3 -14 6 -6 3 7 2 16 -1 19 -3 4 -6 -2 -5 -13z"/>
<path d="M1912 2000 c0 -14 2 -19 5 -12 2 6 2 18 0 25 -3 6 -5 1 -5 -13z"/>
<path d="M1931 1974 c0 -11 3 -14 6 -6 3 7 2 16 -1 19 -3 4 -6 -2 -5 -13z"/>
<path d="M2457 3275 c-4 -8 -3 -16 1 -19 4 -3 9 4 9 15 2 23 -3 25 -10 4z"/>
<path d="M1200 3240 c-9 -6 -10 -10 -3 -10 6 0 15 5 18 10 8 12 4 12 -15 0z"/>
<path d="M1170 3215 c0 -7 30 -13 34 -7 3 4 -4 9 -15 9 -10 1 -19 0 -19 -2z"/>
<path d="M1814 3195 c-68 -12 -224 -55 -224 -61 0 -1 4 -14 9 -27 7 -17 20
-26 45 -31 40 -8 92 -47 101 -76 9 -28 18 -25 40 16 l19 36 18 -21 17 -22 14
23 c8 13 19 32 25 43 10 19 11 19 22 -5 13 -29 65 -63 98 -65 25 -1 80 35 95
60 9 17 27 20 27 5 0 -6 7 -22 16 -35 l16 -25 17 22 18 21 22 -37 23 -37 24
34 c16 24 39 41 71 53 46 16 73 38 73 56 0 20 -167 68 -279 81 l-43 5 6 -40
c7 -43 6 -43 -52 0 l-33 25 -43 -32 c-25 -17 -46 -31 -48 -31 -2 0 -2 18 0 40
5 46 10 44 -94 25z"/>
<path d="M3074 958 l-19 -23 23 19 c21 18 27 26 19 26 -2 0 -12 -10 -23 -22z"/>
</g>
</svg>
